# xmcd
#
# Track frame offsets:
#	150
#	8268
#	15821
#	25901
#	36589
#	46498
#	55514
#	66409
#	76464
#	88227
#	97684
#	106627
#	115715
#	123920
#	133547
#	142968
#	153654
#	164471
#	177500
#	189941
#	201336
#	209323
#	219474
#	231869
#	240936
#	251698
#	260730
#	271598
#	281831
#	293264
#	302950
#	312835
#	323713
#
# Disc length: 4462 seconds
#
# Revision: 4
# Processed by: cddbd v1.5.2PL0 Copyright (c) Steve Scherf et al.
# Submitted via: EZCDAudioConverter 2.1.7.1
#
DISCID=be116c21
DTITLE=The Kinks - The Anthology 1964-1971 1/5
DYEAR=2014
DGENRE=
TTITLE0=I Took My Baby Home
TTITLE1=The Boll-Weevils - I'm A Hog For You, Baby
TTITLE2=I Don't Need You Anymore [Demo]
TTITLE3=Ev'rybody's Gonna Be Happy [Demo]
TTITLE4=Long Tall Sally
TTITLE5=You Still Want Me
TTITLE6=You Do Something To Me
TTITLE7=You Really Got Me
TTITLE8=It's All Right
TTITLE9=Beautiful Delilah [Alternate Mono Mix]
TTITLE10=Just Can't Go To Sleep
TTITLE11=I'm A Lover, Not A Fighter [Alternate Mono Mix]
TTITLE12=Little Queenie [Live At The Playhouse Theatre, 1964]
TTITLE13=Too Much Monkey Business [Alternate Take]
TTITLE14=Stop Your Sobbing
TTITLE15=All Day And All Of The Night
TTITLE16=I Gotta Move
TTITLE17=I Gotta Go Now
TTITLE18=I've Got That Feeling [Live At Piccadilly Studios, 1964]
TTITLE19=Tired Of Waiting For You
TTITLE20=Come On Now [Alternate Mix]
TTITLE21=Look For Me Baby
TTITLE22=Nothin' In The World Can Stop Me Worryin' 'Bout That Girl
TTITLE23=Wonder Where My Baby Is Tonight
TTITLE24=Don't Ever Change
TTITLE25=You Shouldn't Be Sad
TTITLE26=Something Better Beginning
TTITLE27=Ev'rybody's Gonna Be Happy
TTITLE28=Who'll Be The Next In Line [Session Excerpt - Backing Track: Take 
TTITLE28=1]
TTITLE29=Who'll Be The Next In Line [Alternate Mix]
TTITLE30=Set Me Free
TTITLE31=I Need You
TTITLE32=Interview: Clay Cole Meets The Kinks
EXTD=
EXTT0=
EXTT1=
EXTT2=
EXTT3=
EXTT4=
EXTT5=
EXTT6=
EXTT7=
EXTT8=
EXTT9=
EXTT10=
EXTT11=
EXTT12=
EXTT13=
EXTT14=
EXTT15=
EXTT16=
EXTT17=
EXTT18=
EXTT19=
EXTT20=
EXTT21=
EXTT22=
EXTT23=
EXTT24=
EXTT25=
EXTT26=
EXTT27=
EXTT28=
EXTT29=
EXTT30=
EXTT31=
EXTT32=
PLAYORDER=
